<mxfile host="app.diagrams.net" modified="2023-05-14T23:47:29.862Z" agent="Mozilla/5.0 (Macintosh; Intel Mac OS X 10_15_7) AppleWebKit/537.36 (KHTML, like Gecko) Chrome/113.0.0.0 Safari/537.36" version="21.1.2" etag="5vAwfF8JR4a4K5vuz_md" type="github">
  <diagram name="Page-1" id="hcODll2Z0IWHzMXXe43u">
    <mxGraphModel>
      <root>
        <mxCell id="0" />
        <mxCell id="1" parent="0" />
      </root>
    </mxGraphModel>
  </diagram>
</mxfile>
